<svg width="72" height="72" viewBox="0 0 72 72" fill="none" xmlns="http://www.w3.org/2000/svg">
<path d="M61.125 61.125V37.875V38.85V61.125ZM57 26.625C58.15 26.625 59.125 26.225 59.925 25.425C60.725 24.625 61.125 23.65 61.125 22.5C61.125 21.35 60.725 20.375 59.925 19.575C59.125 18.775 58.15 18.375 57 18.375C55.85 18.375 54.875 18.775 54.075 19.575C53.275 20.375 52.875 21.35 52.875 22.5C52.875 23.65 53.275 24.625 54.075 25.425C54.875 26.225 55.85 26.625 57 26.625ZM57 30C54.85 30 53.0625 29.2875 51.6375 27.8625C50.2125 26.4375 49.5 24.65 49.5 22.5C49.5 20.4 50.2125 18.625 51.6375 17.175C53.0625 15.725 54.85 15 57 15C59.1 15 60.875 15.725 62.325 17.175C63.775 18.625 64.5 20.4 64.5 22.5C64.5 24.65 63.775 26.4375 62.325 27.8625C60.875 29.2875 59.1 30 57 30ZM36 23.625C37.55 23.625 38.875 23.0875 39.975 22.0125C41.075 20.9375 41.625 19.6 41.625 18C41.625 16.45 41.075 15.125 39.975 14.025C38.875 12.925 37.55 12.375 36 12.375C34.4 12.375 33.0625 12.925 31.9875 14.025C30.9125 15.125 30.375 16.45 30.375 18C30.375 19.6 30.9125 20.9375 31.9875 22.0125C33.0625 23.0875 34.4 23.625 36 23.625ZM36 27C33.45 27 31.3125 26.1375 29.5875 24.4125C27.8625 22.6875 27 20.55 27 18C27 15.5 27.8625 13.375 29.5875 11.625C31.3125 9.875 33.45 9 36 9C38.5 9 40.625 9.875 42.375 11.625C44.125 13.375 45 15.5 45 18C45 20.55 44.125 22.6875 42.375 24.4125C40.625 26.1375 38.5 27 36 27ZM22.125 40.125C22.125 41.925 23.0125 43.9875 24.7875 46.3125C26.5625 48.6375 30.125 52.2 35.475 57L36 57.45L36.6 56.925C41.75 52.225 45.25 48.725 47.1 46.425C48.95 44.125 49.875 42.025 49.875 40.125C49.875 38.425 49.325 37 48.225 35.85C47.125 34.7 45.75 34.125 44.1 34.125C43.15 34.125 42.25 34.35 41.4 34.8C40.55 35.25 39.775 35.825 39.075 36.525L35.85 39.675H36.15L32.85 36.525C32.15 35.825 31.3875 35.25 30.5625 34.8C29.7375 34.35 28.85 34.125 27.9 34.125C26.25 34.125 24.875 34.7 23.775 35.85C22.675 37 22.125 38.425 22.125 40.125ZM18.675 40.125C18.675 37.675 19.6125 35.4875 21.4875 33.5625C23.3625 31.6375 25.5 30.675 27.9 30.675C29.35 30.675 30.7625 31.025 32.1375 31.725C33.5125 32.425 34.675 33.35 35.625 34.5L36 34.95L36.375 34.5C37.325 33.35 38.475 32.425 39.825 31.725C41.175 31.025 42.6 30.675 44.1 30.675C46.45 30.675 48.575 31.6375 50.475 33.5625C52.375 35.4875 53.325 37.675 53.325 40.125C53.325 42.625 52.3875 45.125 50.5125 47.625C48.6375 50.125 44.875 53.95 39.225 59.1L36 62.1L32.85 59.175C27.05 53.925 23.2375 50.0625 21.4125 47.5875C19.5875 45.1125 18.675 42.625 18.675 40.125ZM15 26.625C16.15 26.625 17.125 26.225 17.925 25.425C18.725 24.625 19.125 23.65 19.125 22.5C19.125 21.35 18.725 20.375 17.925 19.575C17.125 18.775 16.15 18.375 15 18.375C13.85 18.375 12.875 18.775 12.075 19.575C11.275 20.375 10.875 21.35 10.875 22.5C10.875 23.65 11.275 24.625 12.075 25.425C12.875 26.225 13.85 26.625 15 26.625ZM36.225 64.5V61.125H61.125V38.85C61.125 38.6 61.025 38.375 60.825 38.175C60.625 37.975 60.4 37.875 60.15 37.875H51.075V34.5H60.15C61.35 34.5 62.375 34.925 63.225 35.775C64.075 36.625 64.5 37.65 64.5 38.85V64.5H36.225ZM10.875 61.125H36.225V64.5H7.5V38.85C7.5 37.65 7.925 36.625 8.775 35.775C9.625 34.925 10.65 34.5 11.85 34.5H20.925V37.875H11.85C11.55 37.875 11.3125 37.975 11.1375 38.175C10.9625 38.375 10.875 38.6 10.875 38.85V61.125ZM15 30C12.85 30 11.0625 29.2875 9.6375 27.8625C8.2125 26.4375 7.5 24.65 7.5 22.5C7.5 20.4 8.2125 18.625 9.6375 17.175C11.0625 15.725 12.85 15 15 15C17.1 15 18.875 15.725 20.325 17.175C21.775 18.625 22.5 20.4 22.5 22.5C22.5 24.65 21.775 26.4375 20.325 27.8625C18.875 29.2875 17.1 30 15 30Z" fill="#423C66"/>
</svg>
